<svg width="36" height="48" fill="none" xmlns="http://www.w3.org/2000/svg"><path d="M9 34.08l-.4 3.2c-.08.72.08 1.44.56 1.92.4.48 1.04.8 1.76.8h2.8c.72 0 1.52-.24 1.92-.8.4-.56.64-1.2.56-1.92l-.4-3.2c-.16-1.2-1.2-2.08-2.4-2.08h-2c-1.2 0-2.24.88-2.4 2.08zm5.2.24l.4 3.2c.08.24 0 .48-.16.64-.16.16-.4.24-.64.24H11c-.24 0-.48-.08-.64-.24-.16-.16-.16-.4-.16-.64l.4-3.2c.08-.4.4-.72.8-.72h2c.4 0 .72.32.8.72zM8.36 26.4h4c.48 0 .8-.32.8-.8 0-.48-.32-.8-.8-.8h-4c-.48 0-.8.32-.8.8 0 .48.32.8.8.8zm7.2 0h.8c.48 0 .8-.32.8-.8 0-.48-.32-.8-.8-.8h-.8c-.48 0-.8.32-.8.8 0 .48.32.8.8.8z" fill="#fff"/><path d="M31.08 41.6h-.397c.05-.258.077-.525.077-.8v-1.6c0-.48-.32-.8-.8-.8h-.8V9.6c0-5.28-4.32-9.6-9.6-9.6-5.28 0-9.6 4.32-9.6 9.6v4.8c-.48 0-.8.32-.8.8v3.005c-3.369 1.345-5.6 4.553-5.6 8.195V36h-.8c-1.36 0-2.4 1.04-2.4 2.4V44c0 1.36 1.04 2.4 2.4 2.4h.929c.318.947 1.194 1.6 2.271 1.6h28.8c.48 0 .8-.32.88-.8v-1.36c0-2.32-2.08-4.24-4.56-4.24zm-4.48 1.595h-.006c-.804-.057-1.46-.52-1.834-1.195a.967.967 0 00-.204-.224 2.48 2.48 0 01-.196-.976V40h4.8v.8c0 .413-.096.796-.268 1.13a1.089 1.089 0 00-.052.07c-.45.674-1.11 1.138-1.914 1.194h-.006a2.43 2.43 0 01-.32 0zM12.36 20.8c-.88 0-1.6-.72-1.6-1.6V16h3.2v3.04c0 .944-.696 1.654-1.48 1.754-.04.003-.08.006-.12.006zm2.4-6.4V9.6c0-2.64 2.16-4.8 4.8-4.8 2.64 0 4.8 2.16 4.8 4.8v28.8c0-1.36-1.04-2.4-2.4-2.4h-.8v-9.6c0-3.641-2.231-6.85-5.6-8.195V15.2c0-.48-.32-.8-.8-.8zm6.96 27.2h-.56v-4h.8c.48 0 .8.32.8.8v3.2h-1.04zm-10.16-32c0-4.4 3.6-8 8-8s8 3.6 8 8v28.8h-1.6V9.6c0-3.52-2.88-6.4-6.4-6.4-3.52 0-6.4 2.88-6.4 6.4v4.8h-1.6V9.6zM1.96 44v-5.6c0-.48.32-.8.8-.8h.8v7.2h-.8c-.48 0-.8-.32-.8-.8zm3.2 1.6V26.4c0-2.8 1.6-5.28 4.08-6.48l.014.047a3.2 3.2 0 00.45 1.013c.125.203.265.389.416.54.64.64 1.52.96 2.4.88a3.227 3.227 0 002.68-1.733l.022-.042.033-.067.046-.1.008-.02c.071-.166.129-.339.171-.518 2.48 1.12 4.08 3.68 4.08 6.48v16.236c-.056.045-.11.09-.164.138l-.078.07-.013.01a4.073 4.073 0 00-1.25 2.133l-.007.036a3.97 3.97 0 00-.033.167l-.014.096c-.005.039-.012.077-.016.116a3.4 3.4 0 00-.012.145l-.007.072a3.848 3.848 0 00-.006.221v.56h-1.6v-.96c0-1.2-.96-2.24-2.24-2.24H10.6c-1.2 0-2.24.96-2.24 2.24v.96h-2.4c-.48 0-.8-.32-.8-.8zm4.8.8v-.96c0-.32.24-.64.64-.64h3.52c.32 0 .64.24.64.64v.96h-4.8zm24 0h-14.4v-.56c0-1.44 1.36-2.64 2.96-2.64h1.02a3.972 3.972 0 003.22 1.6 3.972 3.972 0 003.219-1.6h1.02c1.6 0 2.96 1.2 2.96 2.64v.56h.001z" fill="#fff"/></svg>