<svg width="82" height="82" fill="none" xmlns="http://www.w3.org/2000/svg"><g clip-path="url(#clip0_56_138)"><path d="M13.883 59.212c2.558 1.91 9.003 4.37 15.104 0 .057-.04 5.453-3.977 11.013 0 2.558 1.91 9.003 4.37 15.104 0 .05-.04 5.453-3.977 11.013 0 1.508 1.124 4.362 2.444 7.708 2.444 2.32 0 4.879-.64 7.363-2.427l-2-2.649c-5.527 3.969-10.816.18-11.062 0-6.068-4.346-12.522-1.886-15.056 0-5.526 3.969-10.815.18-11.061 0-6.077-4.346-12.522-1.886-15.056 0-5.526 3.969-10.807.18-11.053 0-6.076-4.346-12.53-1.886-15.08.025l2.05 2.607c.057-.04 5.461-3.977 11.013 0zm54.243 5.962c-6.068-4.355-12.522-1.886-15.056 0-5.526 3.96-10.815.18-11.061 0-6.077-4.355-12.522-1.886-15.056 0-5.526 3.96-10.807.18-11.053 0-6.076-4.355-12.53-1.886-15.08.016l2.05 2.608c.05-.041 5.461-3.977 11.013 0 2.558 1.91 9.003 4.37 15.104 0 .057-.041 5.453-3.977 11.013 0 2.558 1.91 9.003 4.37 15.104 0 .05-.041 5.453-3.977 11.013 0 1.508 1.123 4.362 2.443 7.708 2.443 2.32 0 4.879-.64 7.363-2.427l-1.992-2.649c-5.535 3.97-10.824.189-11.07.009zm0 8.585c-6.068-4.354-12.522-1.894-15.056 0-5.526 3.96-10.815.18-11.061 0-6.077-4.354-12.522-1.894-15.056 0-5.526 3.96-10.807.18-11.053 0-6.076-4.354-12.53-1.894-15.08.025l2.05 2.599c.05-.041 5.461-3.977 11.013 0 2.558 1.91 9.003 4.37 15.104 0 .057-.041 5.453-3.977 11.013 0 2.558 1.91 9.003 4.37 15.104 0 .05-.041 5.453-3.977 11.013 0 1.508 1.132 4.362 2.444 7.708 2.444 2.32 0 4.879-.64 7.363-2.428l-1.992-2.648c-5.535 3.969-10.824.188-11.07.008zm-2.55-55.555l3.329-3.362a1.396 1.396 0 000-1.968 1.352 1.352 0 00-1.944 0l-3.329 3.362a1.396 1.396 0 000 1.968c.541.55 1.41.541 1.943 0zm7.781 22.435h5.158c.713 0 1.287-.705 1.287-1.566 0-.87-.574-1.566-1.287-1.566h-5.158c-.713 0-1.295.697-1.295 1.566.008.87.582 1.566 1.295 1.566zM42.591 9.635c.869 0 1.574-.582 1.574-1.296V3.173h-3.149v5.175c0 .713.697 1.287 1.575 1.287zM6.667 40.639h5.166c.713 0 1.287-.705 1.287-1.566 0-.87-.574-1.566-1.287-1.566H6.667c-.714 0-1.288.697-1.288 1.566 0 .87.574 1.566 1.288 1.566zm12.94-22.435c.54.55 1.41.55 1.95 0a1.396 1.396 0 000-1.968l-3.328-3.362a1.361 1.361 0 00-1.952 0 1.396 1.396 0 000 1.968l3.33 3.362zm-.19 30.184l4.158-.894a21.106 21.106 0 01-1.763-8.43c0-11.586 9.307-20.983 20.787-20.983 11.48 0 20.779 9.389 20.779 20.984 0 3.001-.64 5.855-1.763 8.43l4.1.893c1.066-2.788 1.689-5.78 1.689-8.954 0-13.834-11.12-25.043-24.813-25.043-13.702 0-24.805 11.21-24.805 25.043 0 3.165.574 6.183 1.632 8.954z" fill="#989898"/></g><defs><clipPath id="clip0_56_138"><path fill="#fff" d="M0 0h82v82H0z"/></clipPath></defs></svg>