<svg width="38" height="38" fill="none" xmlns="http://www.w3.org/2000/svg"><g clip-path="url(#clip0_56_373)"><path d="M29.435 1.453c-.32 0-.644.014-.962.043-3.291.298-6.292 2.296-8.478 5.638C17.46 3.394 13.268.992 9.236.992c-.886 0-1.764.115-2.609.341-2.61.7-4.74 2.643-5.84 5.334-1.22 2.982-1.01 6.474.548 9.115 2.139 3.626 5.806 5.84 9.352 7.98 1.821 1.1 3.705 2.236 5.32 3.539.481.387 1.086.892 1.605 1.442-.655.645-1.949 2.789-1.961 2.814-.407.856-.965 2.664-.48 4.017.208.577.58.995 1.11 1.242.27.127.556.192.847.192 1.252 0 2.412-1.187 3.166-2.182 1.377-1.822 1.583-3.735.612-5.687 1.666-1.508 3.48-2.909 5.233-4.265 3.018-2.332 6.138-4.744 8.621-7.776 1.213-1.482 4.963-6.692 2.313-11.546-1.402-2.567-4.257-4.1-7.638-4.1zM18.588 32.8c-.252.481-.506.829-.771 1.05.053-.715.326-1.413.5-1.797.05-.108.372-.606.603-.939.073.566-.037 1.121-.332 1.686zM15.573 5.98a12.02 12.02 0 012.04 2.147c.07.093.175.27.298.474.71 1.18 1.47 2.334 2.295 2.334.41 0 .756-.288 1.03-.856 1.75-3.622 4.54-5.781 7.859-6.08.193-.019.388-.027.581-.027 2.54 0 4.772 1.486 5.557 3.698 1.033 2.915-.603 6.37-5.002 10.562-1.89 1.8-3.984 3.418-6.01 4.984-1.59 1.228-3.233 2.498-4.77 3.85-1.384-1.534-3.198-2.818-4.639-3.774-.854-.567-1.777-1.122-2.754-1.71-4.806-2.887-10.252-6.16-9.393-12.256.49-3.485 3.084-5.736 6.608-5.736.259 0 .524.012.788.037 1.938.185 3.895 1.02 5.512 2.352z" fill="#fff"/></g><defs><clipPath id="clip0_56_373"><path fill="#fff" d="M0 0h38v38H0z"/></clipPath></defs></svg>