<svg width="56" height="56" fill="none" xmlns="http://www.w3.org/2000/svg"><g clip-path="url(#clip0_56_144)"><path d="M26.09 7.638A4.804 4.804 0 0135.134 9.9a4.804 4.804 0 01-4.805 4.806 1.663 1.663 0 000 3.326 8.13 8.13 0 008.132-8.131 8.13 8.13 0 00-15.305-3.83 1.664 1.664 0 002.934 1.568zM2.223 18.088H30.33a1.663 1.663 0 000-3.326H2.223a1.663 1.663 0 000 3.326zm41.412.386a4.804 4.804 0 113.674 7.902 1.663 1.663 0 000 3.326 8.13 8.13 0 008.13-8.13 8.13 8.13 0 00-14.352-5.237 1.662 1.662 0 102.548 2.14zM2.515 29.702h44.788a1.663 1.663 0 00.006-3.326H2.514a1.663 1.663 0 000 3.326zM38.107 41.3a4.804 4.804 0 014.805 4.805 4.804 4.804 0 01-9.044 2.262 1.664 1.664 0 00-2.935 1.568 8.13 8.13 0 0015.305-3.83 8.13 8.13 0 00-8.131-8.131 1.663 1.663 0 000 3.326zm0-3.332H2.66a1.663 1.663 0 000 3.326h35.448a1.663 1.663 0 000-3.326z" fill="#989898"/></g><defs><clipPath id="clip0_56_144"><path fill="#fff" d="M0 0h56v56H0z"/></clipPath></defs></svg>