<svg width="48" height="44" fill="none" xmlns="http://www.w3.org/2000/svg"><path d="M10.176 21.376c.595 0 1.075-.48 1.075-1.075 0-3.557 2.875-6.456 6.423-6.5a8.644 8.644 0 00-2.933 6.5c0 .595.48 1.075 1.075 1.075s1.075-.48 1.075-1.075a6.533 6.533 0 016.523-6.523h.02a6.4 6.4 0 006.374-6.394 6.867 6.867 0 00-6.86-6.86 6.867 6.867 0 00-6.858 6.86 4.693 4.693 0 004.584 4.685 8.63 8.63 0 00-1.877.888 1.073 1.073 0 00-1.051-1.306c-4.772 0-8.65 3.883-8.65 8.65.005.595.49 1.075 1.08 1.075zM24.394 6.304c-.596 0-1.076.48-1.076 1.075a2.538 2.538 0 01-2.534 2.535 2.538 2.538 0 01-2.534-2.535 4.709 4.709 0 014.704-4.704 4.714 4.714 0 014.708 4.71 4.25 4.25 0 01-4.243 4.242H23.4c-.23 0-.46.01-.686.03a4.691 4.691 0 002.76-4.273 1.082 1.082 0 00-1.08-1.08z" fill="#fff"/><path d="M26.256 15.112a5.19 5.19 0 00-5.184 5.184c0 .595.48 1.075 1.075 1.075s1.075-.48 1.075-1.075a3.037 3.037 0 013.034-3.034c5.222 0 9.466-4.248 9.466-9.465 0-.595-.48-1.075-1.076-1.075-.595 0-1.075.48-1.075 1.075 0 4.032-3.283 7.315-7.315 7.315zm16.45 7.013c-1.575 0-3.154.494-4.69 1.469-.672.427-1.34.95-1.992 1.555.077-.643.115-1.291.115-1.949 0-.595-.48-1.075-1.075-1.075H4.608c-.595 0-1.075.48-1.075 1.075 0 4.354 1.694 8.448 4.776 11.53a16.432 16.432 0 003.417 2.62H1.556c-.596 0-1.076.48-1.076 1.076 0 .974.682 1.814 2.02 2.505 1.004.519 2.41.975 4.182 1.359 3.523.768 8.198 1.19 13.152 1.19 4.958 0 9.628-.422 13.152-1.19 1.77-.384 3.177-.84 4.18-1.359 1.34-.69 2.021-1.53 2.021-2.505 0-.595-.48-1.075-1.075-1.075H27.946a16.432 16.432 0 005.241-4.79l9.562-.807a4.816 4.816 0 004.766-4.815 4.813 4.813 0 00-4.81-4.814zm-7.676 17.38c-.724.255-1.704.529-3.028.793-3.317.662-7.637 1.032-12.168 1.032-4.532 0-8.852-.365-12.168-1.032-1.32-.264-2.304-.538-3.03-.792H35.03zm-15.192-2.154h-.01c-7.44 0-13.554-5.775-14.106-13.076H33.94a13.966 13.966 0 01-1.45 5.237l-.096.154c-.211.34-.403.672-.576.993-.062.12-.115.216-.158.298-2.525 3.845-6.883 6.394-11.823 6.394zm22.868-7.748c-.03 0-.063 0-.092.005l-8.054.677c1.488-2.28 4.478-6.01 8.14-6.01a2.663 2.663 0 01.005 5.328z" fill="#fff"/></svg>