<svg width="62" height="62" fill="none" xmlns="http://www.w3.org/2000/svg"><g clip-path="url(#clip0_56_157)" fill="#989898"><path d="M57.734 51.31h-.037c-.462-11.668-8.525-21.433-19.214-24.581v-.005c0-4.125-3.357-7.482-7.483-7.482-4.126 0-7.483 3.357-7.483 7.482l.001.005C12.742 29.878 4.765 39.642 4.303 51.311h-.036a4.276 4.276 0 000 8.551h53.467a4.276 4.276 0 000-8.551zM31 21.38c2.762 0 5.015 2.113 5.29 4.803a26.751 26.751 0 00-10.58 0c.276-2.69 2.528-4.803 5.29-4.803zm0 6.413c13.199 0 24.002 10.455 24.563 23.518h-43.75c.558-9.523 8.458-17.104 18.118-17.104a1.069 1.069 0 100-2.138c-10.838 0-19.695 8.54-20.256 19.242H6.437C6.998 38.248 17.801 27.793 31 27.793zm26.734 29.931H4.267a2.136 2.136 0 01-2.129-2.138c0-1.178.955-2.137 2.129-2.137h53.467c1.173 0 2.128.959 2.128 2.137a2.136 2.136 0 01-2.128 2.138zM17.525 21.693c-.025-.027-2.568-2.617-.935-5.066 2.504-3.756.103-7.444 0-7.6a1.07 1.07 0 00-1.779 1.187c.017.026 1.723 2.644 0 5.227-2.076 3.114-.12 6.44 1.203 7.763a1.065 1.065 0 001.511 0 1.068 1.068 0 000-1.511zm14.965-6.414c-.025-.026-2.567-2.616-.935-5.065 2.505-3.757.104-7.444 0-7.6A1.068 1.068 0 1029.777 3.8c.017.026 1.722 2.644 0 5.228-2.076 3.113-.121 6.439 1.202 7.762a1.065 1.065 0 001.512 0 1.068 1.068 0 000-1.511zm14.966 8.551c-.025-.025-2.568-2.615-.935-5.064 2.504-3.757.103-7.445 0-7.6a1.069 1.069 0 10-1.779 1.186c.018.026 1.723 2.644 0 5.227-2.075 3.113-.12 6.44 1.203 7.763a1.066 1.066 0 001.511 0 1.068 1.068 0 000-1.511z"/></g><defs><clipPath id="clip0_56_157"><path fill="#fff" d="M0 0h62v62H0z"/></clipPath></defs></svg>