<svg width="64" height="64" fill="none" xmlns="http://www.w3.org/2000/svg"><g clip-path="url(#clip0_56_150)"><path d="M6.263 6.987c-1.189.208-2.23 1.029-2.793 2.205l-.319.674-.024 10.106-.037 10.094-.416.808c-.49.931-.82 1.79-1.164 3.063C.75 36.79.64 38.48.64 48.477v8.612h8.808l.037-3.1c.036-3.54.085-3.723.992-4.14.502-.22 1.151-.233 21.523-.233s21.02.012 21.523.233c.906.417.956.6.992 4.14l.036 3.1h8.809v-8.611c0-9.997-.11-11.687-.87-14.541-.343-1.274-.674-2.131-1.163-3.063l-.417-.796-.024-10.106-.037-10.106-.319-.674a4.066 4.066 0 00-1.947-1.948l-.674-.319-25.541-.012c-14.051-.012-25.8.025-26.105.074zM57.652 9.57c.16.074.38.307.502.527.172.343.196 1.188.16 8.673l-.037 8.293-.858-.588c-.465-.33-1.31-.833-1.861-1.102l-1.017-.515v-3.001c0-3.295-.012-3.344-.76-4.042-1.482-1.409-4.961-2.058-11-2.058-5.219-.013-8.367.416-10.278 1.396l-.502.245-.503-.245c-1.91-.98-5.06-1.409-10.278-1.396-6.039 0-9.518.648-11 2.058-.748.698-.76.747-.76 4.042v3.002l-1.004.514c-.564.27-1.397.772-1.874 1.103l-.858.588-.037-8.294c-.037-7.497-.012-8.33.171-8.673.11-.22.32-.453.454-.515.392-.183 50.923-.195 51.34-.012zM25.63 18.39c1.837.16 3.7.54 4.508.907l.637.294v2.315l-.76.074c-.429.036-2.045.098-3.589.122-5.28.123-10.816.809-13.928 1.727l-.588.172v-4.41l.661-.306c.76-.343 2.585-.723 4.263-.882 1.642-.16 7.142-.172 8.796-.012zm21.315 0c1.911.172 3.675.527 4.483.895l.662.306v4.41l-.576-.172c-3.124-.918-8.661-1.604-13.94-1.727-1.544-.024-3.16-.086-3.577-.122l-.772-.074v-2.315l.649-.293c.747-.343 2.731-.76 4.312-.907 1.63-.148 7.142-.16 8.76 0zm-5.268 6.407c8.428.723 13.047 2.193 15.766 4.986.931.955 1.225 1.396 1.813 2.621.846 1.764 1.335 4.006 1.482 6.823l.086 1.568H3.176l.085-1.568c.147-2.817.637-5.059 1.483-6.823.588-1.225.881-1.666 1.813-2.621 3.038-3.136 8.905-4.716 19.318-5.206 2.536-.11 13.658.036 15.802.22zM60.85 48.943v5.635l-1.862.036-1.875.038v-1.446c0-.796-.061-1.8-.134-2.242-.331-2.107-1.617-3.43-3.675-3.785-1.14-.196-41.466-.196-42.605 0-2.059.355-3.345 1.678-3.675 3.785-.074.44-.135 1.445-.135 2.242v1.445l-1.862-.037-1.874-.036-.037-5.512c-.012-3.038 0-5.586.037-5.672.036-.122 5.88-.147 28.873-.122l28.824.036v5.635z" fill="#989898"/></g><defs><clipPath id="clip0_56_150"><path fill="#fff" d="M0 0h64v64H0z"/></clipPath></defs></svg>