<svg width="48" height="48" fill="none" xmlns="http://www.w3.org/2000/svg"><path d="M20.814 8c-6.84.69-13.321 3.707-18.322 8.55C.81 18.16.48 18.62.48 19.28c0 .805.963 1.567 1.739 1.38.187-.043 1.12-.833 2.07-1.753 3.405-3.32 6.84-5.403 11.022-6.74 4.814-1.551 10.418-1.767 15.261-.618 5.015 1.193 9.542 3.737 13.206 7.415 1.696 1.71 2.127 1.94 2.875 1.58.819-.387 1.12-1.393.632-2.126-.36-.546-2.673-2.802-3.823-3.722C37.168 9.623 28.92 7.18 20.814 8z" fill="#fff"/><path d="M20.024 16.45c-3.895.704-7.689 2.529-10.592 5.101-1.336 1.179-2.759 2.745-2.86 3.176-.23.92.446 1.782 1.423 1.782.59 0 .676-.058 1.825-1.236 2.142-2.2 3.492-3.205 5.964-4.383 2.803-1.337 5.864-1.955 9.054-1.81 5.101.243 9.283 2.112 12.962 5.805 1.538 1.538 1.653 1.623 2.213 1.623.82 0 1.422-.603 1.422-1.422 0-.503-.114-.719-.876-1.595-2.831-3.305-6.984-5.748-11.626-6.855-2.126-.503-6.653-.603-8.91-.186z" fill="#fff"/><path d="M21.59 24.569a13.453 13.453 0 00-7.185 3.808c-1.81 1.825-2.17 2.803-1.336 3.65.804.79 1.623.56 2.686-.776a10.675 10.675 0 013.622-2.874c1.552-.762 2.831-1.035 4.67-1.035 1.854 0 3.263.345 4.93 1.193.962.503 1.451.876 2.701 2.155 1.566 1.595 1.955 1.825 2.601 1.581 1.092-.417 1.294-1.48.489-2.587-.618-.848-2.256-2.414-3.147-3.018-1.02-.69-2.889-1.523-4.196-1.882-1.51-.402-4.297-.503-5.835-.215zm1.236 10.102c-1.049.489-1.796 1.653-1.796 2.76 0 .69.66 1.824 1.293 2.242.833.546 2.141.646 2.974.215 2.688-1.365 1.854-5.231-1.164-5.432-.502-.043-.919.028-1.307.215z" fill="#fff"/></svg>