<svg width="148" height="314" fill="none" xmlns="http://www.w3.org/2000/svg"><path d="M110.767 0c23.013 0 34.52 15.686 34.52 33.66 0 22.446-19.991 43.207-46.01 43.207-21.793 0-34.502-12.9-33.9-34.228C65.376 24.699 80.506 0 110.766 0zM39.959 344c-18.17 0-31.48-11.214-18.771-60.613l20.849-87.582c3.624-14.001 4.225-19.625 0-19.625-5.444 0-29.007 9.666-42.97 19.212L-10 180.256c44.171-37.599 94.989-59.632 116.8-59.632 18.153 0 21.175 21.895 12.107 55.556l-23.888 92.054c-4.225 16.254-2.422 21.861 1.82 21.861 5.444 0 23.305-6.742 40.857-20.76L148 283.336C105.031 327.144 58.095 344 39.959 344z" fill="#AE8E71"/></svg>