<svg width="20" height="34" fill="none" xmlns="http://www.w3.org/2000/svg"><path d="M15.355 0c2.841 0 4.261 1.55 4.261 3.327 0 2.218-2.467 4.27-5.679 4.27-2.69 0-4.259-1.275-4.185-3.383C9.752 2.441 11.62 0 15.355 0zm-8.74 34c-2.243 0-3.886-1.108-2.317-5.99l2.573-8.657c.448-1.384.522-1.94 0-1.94-.672 0-3.58.956-5.304 1.899l-1.12-1.496c5.453-3.716 11.727-5.894 14.42-5.894 2.24 0 2.614 2.164 1.494 5.491l-2.949 9.099c-.521 1.606-.299 2.16.225 2.16.672 0 2.877-.666 5.043-2.052l1.272 1.384C14.647 32.334 8.853 34 6.615 34z" fill="#AE8E71"/></svg>