<svg width="54" height="50" fill="none" xmlns="http://www.w3.org/2000/svg"><path d="M40.5 37.875a2.377 2.377 0 01-3.375 0c-2.25-2.25-6.188-2.25-8.438 0a2.377 2.377 0 01-3.375 0c-2.25-2.25-6.187-2.25-8.437 0a2.377 2.377 0 01-3.375 0c-2.25-2.25-6.188-2.25-8.438 0-.75.75-.75 1.875 0 2.625s1.875.75 2.625 0a2.377 2.377 0 013.375 0c2.25 2.25 6.188 2.25 8.438 0a2.377 2.377 0 013.375 0c2.25 2.25 6.188 2.25 8.438 0a2.377 2.377 0 013.375 0c1.124 1.125 2.624 1.688 4.312 1.688 1.688 0 3-.563 4.313-1.688a2.377 2.377 0 013.374 0c.75.75 1.876.75 2.626 0s.75-1.875 0-2.625c-2.813-2.25-6.563-2.25-8.813 0zm2.813 7.313c-1.313.937-3.376.937-4.688 0-2.625-2.063-6.75-2.063-9.375 0-1.313.937-3.375.937-4.688 0-2.625-2.063-6.75-2.063-9.375 0-1.312.937-3.374.937-4.687 0-2.625-2.063-6.75-2.063-9.375 0-.75.562-.938 1.874-.188 2.624.563.75 1.875.938 2.625.188 1.313-.938 3.375-.938 4.688 0 1.312 1.125 3 1.5 4.688 1.5a8.205 8.205 0 004.687-1.5c1.313-.938 3.375-.938 4.688 0 2.625 2.063 6.75 2.063 9.375 0 1.312-.938 3.375-.938 4.687 0 2.625 2.063 6.75 2.063 9.375 0 1.313-.938 3.375-.938 4.688 0 .75.563 2.062.563 2.624-.188.563-.75.563-2.062-.187-2.624-3-2.063-6.938-2.063-9.563 0zM27 10.125c1.125 0 1.875-.75 1.875-1.875V2.625C28.875 1.5 28.125.75 27 .75s-1.875.75-1.875 1.875V8.25c0 1.125.75 1.875 1.875 1.875zM12.375 15c.375.375.938.563 1.313.563.374 0 .937-.188 1.312-.563.75-.75.75-1.875 0-2.625l-3.938-3.938c-.75-.75-1.874-.75-2.624 0s-.75 1.876 0 2.626L12.374 15zm-9.75 13.875H8.25c1.125 0 1.875-.75 1.875-1.875s-.75-1.875-1.875-1.875H2.625C1.5 25.125.75 25.875.75 27s.75 1.875 1.875 1.875zM43.875 27c0 1.125.75 1.875 1.875 1.875h5.625c1.125 0 1.875-.75 1.875-1.875s-.75-1.875-1.875-1.875H45.75c-1.125 0-1.875.75-1.875 1.875zm-3.562-11.437c.562 0 .937-.188 1.312-.563l3.938-3.938c.75-.75.75-1.874 0-2.624s-1.876-.75-2.626 0L39 12.374c-.75.75-.75 1.875 0 2.625.375.375.75.563 1.313.563zM13.5 33.375c.188.75.938 1.125 1.688 1.125h23.624c.75 0 1.313-.375 1.688-1.125C41.438 31.312 42 29.25 42 27c0-8.25-6.75-15-15-15s-15 6.75-15 15c0 2.25.563 4.313 1.5 6.375z" fill="#AE8E71"/></svg>