<svg width="56" height="56" fill="none" xmlns="http://www.w3.org/2000/svg"><path d="M53.2 29.867h-.933v-19.6c0-4.632-3.77-8.4-8.4-8.4-4.142 0-7.105 3.067-7.434 7.558A4.67 4.67 0 0032.667 14c0 .517.418.934.933.934h7.467A.933.933 0 0042 14a4.672 4.672 0 00-3.69-4.56c.271-2.96 2.017-5.707 5.557-5.707a6.541 6.541 0 016.533 6.533v19.6H22.306a4.675 4.675 0 00-4.573-3.733h-.02A4.658 4.658 0 0014 24.267c-1.774 0-3.356 1.025-4.137 2.543a4.6 4.6 0 00-2.396-.676 4.676 4.676 0 00-4.573 3.733H2.8a2.803 2.803 0 00-2.8 2.8c0 1.544 1.256 2.8 2.8 2.8h1.138l2.496 9.984a6.524 6.524 0 006.339 4.95h.65l-1.192 2.382a.934.934 0 001.671.835L15.51 50.4h25.913l1.608 3.218a.934.934 0 001.671-.835L43.5 50.378a6.512 6.512 0 006.067-4.927l2.496-9.984H53.2c1.544 0 2.8-1.256 2.8-2.8 0-1.544-1.256-2.8-2.8-2.8zm0 3.733H2.8a.934.934 0 010-1.866h50.4a.934.934 0 010 1.866z" fill="#AE8E71"/><path d="M33.6 19.134a.933.933 0 00.933-.933v-.467a.933.933 0 10-1.866 0v.467c0 .516.418.933.933.933zm0 4.266a.933.933 0 00.933-.933V21.4a.934.934 0 00-1.866 0v1.067c0 .516.418.933.933.933zm0 3.668a.933.933 0 00.933-.934v-.466a.933.933 0 10-1.866 0v.466c0 .516.418.934.933.934zm3.733-7.934a.933.933 0 00.934-.933v-.467a.933.933 0 10-1.867 0v.467c0 .516.418.933.933.933zm-.933 3.333a.933.933 0 101.867 0V21.4a.934.934 0 00-1.867 0v1.067zm0 3.666a.933.933 0 101.867 0v-.466a.933.933 0 10-1.867 0v.466zm4.667-6.999a.933.933 0 00.933-.933v-.467a.933.933 0 10-1.867 0v.467c0 .516.418.933.934.933zm-.934 3.333a.933.933 0 101.867 0V21.4a.934.934 0 00-1.867 0v1.067zm0 3.666a.933.933 0 101.867 0v-.466a.933.933 0 10-1.867 0v.466z" fill="#AE8E71"/></svg>