<svg width="38" height="59" fill="none" xmlns="http://www.w3.org/2000/svg"><path d="M37.858 54.01l-6.954-19.75c-.723.227-1.47.385-2.248.385a7.47 7.47 0 01-1.328-.118 7.511 7.511 0 01-2.939 3.937l-3.176 9.016 3.883 11.023a.745.745 0 001.402.008l2.627-7.207a.738.738 0 011.081-.381l6.565 3.971a.744.744 0 001.087-.883zM10.324 38.224a7.559 7.559 0 01-3.65-.942c-.106-.06-.2-.134-.303-.197L2.035 49.393a.745.745 0 001.086.883l6.565-3.97a.754.754 0 01.633-.066.741.741 0 01.45.447l2.626 7.207a.744.744 0 00.7.489h.003a.747.747 0 00.698-.497l4.986-14.156c-2.119-.102-4.089-1.062-5.433-2.668a7.518 7.518 0 01-4.025 1.162zM32.93 14.24a2.679 2.679 0 01-1.723-1.6 2.678 2.678 0 01.205-2.34l.002-.004a3.618 3.618 0 00-4.525-5.194 2.669 2.669 0 01-2.349-.118 2.671 2.671 0 01-1.345-1.924l-.002-.003a3.618 3.618 0 00-6.804-1.07 2.675 2.675 0 01-4.144.81 3.624 3.624 0 00-4.246-.374A3.62 3.62 0 006.343 6.35a2.67 2.67 0 01-2.605 3.282H3.62c-1.543 0-2.92.98-3.424 2.443a3.62 3.62 0 001.254 4.072l.004.003a2.673 2.673 0 01.075 4.22 3.618 3.618 0 002.476 6.428 2.676 2.676 0 012.163.915c.541.622.757 1.503.6 2.313-.3 1.541.432 3.061 1.807 3.821a3.62 3.62 0 004.228-.53 2.67 2.67 0 014.168.657l.002.002a3.625 3.625 0 003.862 1.802 3.624 3.624 0 002.9-3.123 2.675 2.675 0 012.656-2.358c.323 0 .65.06.96.18h.003a3.618 3.618 0 004.33-5.36 2.667 2.667 0 01-.291-2.33 2.676 2.676 0 011.661-1.66 3.62 3.62 0 00-.124-6.888zM17.753 28.932c-6.071 0-11.013-4.94-11.013-11.012S11.682 6.91 17.753 6.91c6.073 0 11.012 4.94 11.012 11.012s-4.94 11.012-11.012 11.012z" fill="#AE8E71"/><path d="M17.753 10.834c-3.908 0-7.088 3.179-7.088 7.087 0 3.907 3.18 7.086 7.088 7.086a7.094 7.094 0 007.087-7.086 7.094 7.094 0 00-7.087-7.087zm5.674-7.56h-.445v-.422h.445v.422zm-.387-.058h.329V2.91h-.329v.307z" fill="#AE8E71"/></svg>