<svg width="60" height="48" fill="none" xmlns="http://www.w3.org/2000/svg"><g clip-path="url(#clip0_102_98)" fill="#AE8E71"><path fill-rule="evenodd" clip-rule="evenodd" d="M22.403 32.104V11.77l-6.207-.078L17.214.115 29.669 0l1.241 11.691-6.364.041-.041 17.44a3.887 3.887 0 00-2.102 2.932z"/><path d="M28.444 30.927h-2.801c-.773 0-1.399.623-1.399 1.392v12.378c0 .77.626 1.392 1.399 1.392h2.801c.773 0 1.399-.623 1.399-1.392V32.32c0-.77-.626-1.392-1.399-1.392zm30.157 0H55.8c-.772 0-1.399.623-1.399 1.392v12.378c0 .77.627 1.392 1.399 1.392h2.801c.773 0 1.399-.623 1.399-1.392V32.32c0-.77-.626-1.392-1.399-1.392z"/><path fill-rule="evenodd" clip-rule="evenodd" d="M32.114 38.322h20.35v-2.421c0-.476-.19-.933-.528-1.27a1.808 1.808 0 00-1.275-.526H33.919c-.479 0-.938.19-1.276.526a1.791 1.791 0 00-.529 1.27v2.421zm20.35 2.236h-20.35v3.736c0 .476.19.932.529 1.27a1.81 1.81 0 001.276.525H50.66a1.81 1.81 0 001.666-1.108c.091-.218.138-.452.138-.688V40.56zM34.759 31.91c-1.283.033-2.107.412-2.645 1.026 0-2.014-.715-3.126-2.271-3.707v-7.507c.128-2.5 1.506-4.097 4.465-4.53H50.08c2.959.453 4.337 2.06 4.465 4.53v7.495c-1.556.593-2.284 1.705-2.271 3.706-.538-.605-1.362-.992-2.645-1.025l-14.871.012zM14.433 35.6a.704.704 0 00-.441-.659.716.716 0 00-.275-.053H6.451a.716.716 0 00-.662.44.705.705 0 00-.054.272v1.425a.705.705 0 00.441.66.74.74 0 00.275.053h7.266a.716.716 0 00.663-.44.703.703 0 00.053-.273V35.6zM2.14 48v-5.288h16.043V48h2.14V29.983H0V48h2.14z"/><path fill-rule="evenodd" clip-rule="evenodd" d="M5.458 23.502h9.405l-1.762 6.507H7.316l-1.858-6.507z"/><path fill-rule="evenodd" clip-rule="evenodd" d="M7.841 17.736a7.21 7.21 0 012.297-5.485 8.257 8.257 0 012.069 5.74c1.46-1.268 3.09-2.021 4.895-1.923-.302 4.744-2.652 7.433-7.005 7.664-4.718-.457-6.783-3.352-6.903-7.635a6.64 6.64 0 014.647 1.64z"/></g><defs><clipPath id="clip0_102_98"><path fill="#fff" d="M0 0h60v48H0z"/></clipPath></defs></svg>