<svg width="48" height="48" fill="none" xmlns="http://www.w3.org/2000/svg"><path d="M13.536 10.258a4.993 4.993 0 100-9.988 4.993 4.993 0 100 9.987zM19.52 35.21a3.302 3.302 0 01-2.12-1.221 3.304 3.304 0 01-.635-2.816l.03-.13a4.001 4.001 0 01-2.646-.58 3.978 3.978 0 01-1.775-2.498 3.978 3.978 0 01.512-3.022l7.372-11.75a3.714 3.714 0 00-3.068-1.612H9.883c-1.48 0-2.776.87-3.41 2.152L.263 26.319a2.527 2.527 0 004.531 2.237l2.034-4.12.656 8.638v12.13a2.527 2.527 0 005.053 0V33.766h2v11.437a2.527 2.527 0 005.011.464 4.014 4.014 0 01-.027-.464V35.21zm11.76 2.92a2.911 2.911 0 01-1.6-1.026 2.914 2.914 0 01-.616-2.175h-.025c-.336 0-.668-.05-.987-.145v10.42a2.527 2.527 0 003.681 2.246 3.446 3.446 0 01-.453-1.71v-7.61z" fill="#AE8E71"/><path d="M26.104 29.618l6.218-9.91a3.463 3.463 0 011.33-1.228 5.275 5.275 0 01-1.274-4.842l-.31-.494a2.524 2.524 0 00-2.043-1.182c-.248-.034-5.718-.032-5.948 0a2.524 2.524 0 00-2.044 1.182l-7.896 12.585a2.527 2.527 0 004.28 2.686l.797-1.269-1.01 4.36a1.844 1.844 0 001.797 2.26h.996v11.437a2.527 2.527 0 005.054 0V33.766h.4a3.473 3.473 0 01-.347-4.148z" fill="#AE8E71"/><path d="M47.695 30.403l-6.218-9.91a1.988 1.988 0 00-1.61-.93c-.095-.014-1.181-.02-2.284-.02-1.145 0-2.307.007-2.4.02a1.987 1.987 0 00-1.609.93l-6.218 9.91a1.99 1.99 0 003.37 2.116l.628-1-.796 3.434a1.453 1.453 0 001.416 1.78h.784v9.007a1.99 1.99 0 103.98 0v-9.007h1.575v9.007a1.99 1.99 0 003.98 0v-9.007h.784a1.452 1.452 0 001.415-1.78l-.795-3.434.627 1a1.99 1.99 0 103.371-2.116zM27.051 10.857a4.848 4.848 0 100-9.695 4.848 4.848 0 000 9.695zm8.395 7.219a3.8 3.8 0 002.08.617 3.813 3.813 0 003.817-3.817 3.817 3.817 0 10-5.897 3.2z" fill="#AE8E71"/></svg>